<svg width="175" height="80" viewBox="0 0 175 80" fill="none" xmlns="http://www.w3.org/2000/svg">
<g filter="url(#filter0_d_61_302)">
<path d="M4 43.3114C4 42.7588 4.13868 42.3845 4.41572 42.187C4.69276 41.9898 5.2671 41.8316 6.13747 41.7133C6.65165 41.6347 7.07734 41.5161 7.41391 41.3586C7.75047 41.2008 8.00788 40.9542 8.18614 40.6184C8.36343 40.2836 8.48281 39.8202 8.54169 39.2285C8.60089 38.6365 8.6305 37.887 8.6305 36.9804V13.3718C8.6305 12.2282 8.60089 11.4198 8.54169 10.9464C8.48248 10.4734 8.35346 10.0783 8.15557 9.76302C7.87886 9.36856 7.57222 9.10238 7.23597 8.96448C6.89909 8.82626 6.25588 8.69766 5.30636 8.57964C4.43535 8.46098 4 7.94851 4 7.04157C4 5.97621 4.57403 5.44385 5.72143 5.44385H16.467C18.4057 5.44385 20.147 5.5423 21.6909 5.73953C23.2344 5.93708 24.6392 6.25265 25.9056 6.68656C27.1721 7.12078 28.3494 7.69227 29.4376 8.4023C30.5265 9.112 31.5651 9.95993 32.5546 10.9467C34.415 12.7609 35.8201 14.9106 36.77 17.3957C37.7192 19.8808 38.1941 22.6032 38.1941 25.5607C38.1941 28.7564 37.6207 31.7245 36.4727 34.4658C35.3246 37.2075 33.7026 39.4658 31.6047 41.2406C30.1008 42.5032 28.4392 43.43 26.6184 44.0214C24.7975 44.6131 22.6214 44.9091 20.0882 44.9091H5.72143C4.57403 44.9088 4 44.3764 4 43.3114ZM15.8139 38.0455C15.9715 38.7154 16.2289 39.3077 16.5854 39.8205C17.5343 41.0825 18.8803 41.7136 20.6216 41.7136C22.0467 41.7136 23.3425 41.3092 24.5102 40.5007C25.6778 39.6923 26.6969 38.5679 27.5679 37.128C28.4386 35.688 29.1111 33.9723 29.586 31.9804C30.0612 29.9886 30.2984 27.8091 30.2984 25.4423C30.2984 22.7209 29.9917 20.3637 29.3781 18.3719C28.7652 16.38 27.825 14.6344 26.5588 13.1358C25.2924 11.6359 23.9069 10.5616 22.4029 9.91119C20.8987 9.26017 19.0785 8.93434 16.9416 8.93434C16.9416 8.93434 16.0603 8.93434 15.8435 8.93434C15.6266 8.93434 15.5761 8.95262 15.5761 9.2002C15.5761 9.51416 15.5761 35.2647 15.5761 35.2647C15.5764 36.4474 15.6556 37.3746 15.8139 38.0455Z" fill="#779797"/>
<path d="M46.8735 35.3238C46.4176 35.7971 46.1904 36.4081 46.1904 37.1576C46.1904 37.7104 46.3481 38.2329 46.6654 38.7254C46.9817 39.219 47.3977 39.6625 47.9122 40.057C48.4267 40.4518 49.02 40.7574 49.6928 40.9745C50.366 41.1913 51.0578 41.2994 51.7705 41.2994C52.7206 41.2994 53.7596 41.0922 54.8874 40.6785C56.0155 40.2642 57.0345 39.7222 57.9448 39.0513C58.2611 38.8537 58.4889 38.7155 58.6276 38.6369C58.7666 38.5584 58.9342 38.5192 59.1321 38.5192C59.4487 38.5192 59.7254 38.6273 59.9632 38.8441C60.2007 39.0612 60.3191 39.3274 60.3191 39.6433C60.3191 40.117 60.0626 40.6589 59.5475 41.2699C59.033 41.8818 58.3206 42.5222 57.4106 43.1931C56.381 43.9031 55.2243 44.465 53.9375 44.8793C52.6514 45.2937 51.3551 45.5009 50.0493 45.5009C48.3874 45.5009 46.8536 45.1747 45.4491 44.5237C44.0436 43.8733 42.8171 42.9757 41.7678 41.8317C40.7192 40.6884 39.8984 39.337 39.3044 37.7791C38.711 36.2214 38.4141 34.5349 38.4141 32.7204C38.4141 30.7875 38.7307 28.9833 39.3639 27.3063C39.9968 25.63 40.8775 24.1801 42.0059 22.9576C43.133 21.7348 44.4693 20.7782 46.0128 20.0877C47.556 19.3976 49.2186 19.0525 50.9992 19.0525C52.2261 19.0525 53.3741 19.25 54.4424 19.6439C55.5113 20.0386 56.4415 20.571 57.233 21.2413C58.0243 21.9122 58.6572 22.6911 59.1327 23.5782C59.6073 24.4659 59.8445 25.4225 59.8445 26.4481C59.8445 27.4734 59.598 28.3021 59.1028 28.9335C58.6076 29.5644 57.7868 30.1362 56.6394 30.6496L49.456 33.7854C48.1889 34.338 47.3279 34.8501 46.8735 35.3238ZM53.5533 28.1347C53.8902 27.7604 54.0585 27.237 54.0585 26.5668C54.0585 25.4229 53.6222 24.4168 52.7522 23.5493C51.8818 22.6815 50.8528 22.2473 49.6648 22.2473C48.0821 22.2473 46.7764 22.9278 45.7464 24.2892C44.7177 25.6496 44.2035 27.3952 44.2035 29.5252C44.2035 30.2349 44.2332 30.8959 44.293 31.5072C44.3522 32.1181 44.4806 32.7595 44.6785 33.4304C44.9555 32.9176 45.2528 32.5328 45.5694 32.2762C45.8857 32.02 46.4594 31.7143 47.2905 31.359L51.6836 29.3476C52.5939 28.9137 53.2174 28.5096 53.5533 28.1347Z" fill="#779797"/>
<path d="M108.928 15.572C110.015 15.572 110.933 15.1974 111.685 14.4479C112.437 13.6991 112.813 12.7829 112.813 11.7005C112.813 10.6185 112.437 9.70287 111.685 8.95307C110.933 8.20456 110.035 7.82935 108.991 7.82935C107.906 7.82935 106.976 8.20456 106.203 8.95307C105.43 9.70287 105.045 10.6188 105.045 11.7005C105.045 12.7829 105.421 13.6988 106.172 14.4479C106.924 15.1974 107.842 15.572 108.928 15.572Z" fill="#779797"/>
<path d="M114.849 42.0096C114.254 41.8915 113.781 41.7629 113.423 41.6254C113.067 41.4871 112.791 41.27 112.592 40.9747C112.394 40.6786 112.266 40.2742 112.206 39.7618C112.148 39.2487 112.117 38.5784 112.117 37.7503V24.9102C112.117 24.0026 112.138 23.2737 112.177 22.7211C112.217 22.1689 112.297 21.4983 112.415 20.7094L112.474 19.822C112.474 19.4278 112.346 19.0921 112.088 18.8163C111.831 18.5402 111.485 18.4016 111.05 18.4016C110.772 18.4016 110.495 18.4606 110.218 18.5793C109.585 18.8163 109.05 19.0135 108.616 19.1706C108.18 19.3288 107.755 19.4477 107.339 19.5263C106.923 19.6042 106.488 19.6533 106.033 19.6745C105.578 19.6934 105.053 19.703 104.459 19.703C103.114 19.703 102.441 20.1969 102.441 21.1827C102.441 22.0108 102.917 22.4841 103.866 22.6031C104.896 22.7211 105.578 22.9578 105.914 23.3122C106.251 23.6675 106.419 24.3185 106.419 25.2655V37.75C106.419 39.2487 106.281 40.2742 106.004 40.8262C105.727 41.3781 105.172 41.7334 104.341 41.8915C103.55 42.049 103.025 42.2267 102.768 42.4239C102.511 42.6214 102.382 42.9761 102.382 43.4889C102.382 43.9232 102.52 44.2686 102.797 44.5242C103.075 44.7807 103.45 44.9093 103.925 44.9093H114.67C115.659 44.9093 116.155 44.4356 116.155 43.4893C116.155 42.7 115.719 42.2071 114.849 42.0096Z" fill="#779797"/>
<path d="M133.77 25.2352C133.829 25.0585 133.859 24.8315 133.859 24.5547C133.859 23.4508 133.146 22.7799 131.721 22.5433C130.693 22.3858 130.178 21.9128 130.178 21.1232C130.178 20.1377 130.851 19.6644 132.196 19.7028C133.344 19.7028 134.195 19.6644 134.749 19.5848C135.303 19.5053 135.937 19.3084 136.649 18.9935C137.242 18.7173 137.608 18.5592 137.747 18.5201C137.886 18.48 138.054 18.4604 138.251 18.4604C138.607 18.4604 138.914 18.5791 139.171 18.8161C139.429 19.0525 139.558 19.3481 139.558 19.7028C139.558 19.9004 139.478 20.2362 139.32 20.7092L131.899 39.8793C131.82 40.0374 131.76 40.1756 131.721 40.2936C131.682 40.4123 131.632 40.5698 131.573 40.767C131.512 40.9645 131.434 41.2307 131.335 41.5655C131.235 41.901 131.088 42.3846 130.89 43.0151C130.652 43.7646 130.405 44.2684 130.148 44.524C129.89 44.7805 129.485 44.9091 128.931 44.9091H126.2C125.804 44.9091 125.507 44.7905 125.31 44.5541C125.112 44.3174 124.934 43.8835 124.775 43.2527C124.617 42.7393 124.429 42.1575 124.211 41.5068C123.993 40.8561 123.766 40.2346 123.529 39.6433L117.772 25.8567C117.495 25.2256 117.257 24.7131 117.06 24.3187C116.862 23.9242 116.644 23.6086 116.407 23.3723C116.17 23.1353 115.863 22.9477 115.487 22.8094C115.11 22.6719 114.606 22.5237 113.973 22.3656C113.735 22.2867 113.527 22.1196 113.349 21.8624C113.171 21.6062 113.082 21.3204 113.082 21.0049C113.082 20.0973 113.656 19.6438 114.804 19.6438H124.716C125.705 19.6438 126.2 20.0781 126.2 20.9459C126.2 21.6953 125.804 22.1886 125.013 22.4249C124.458 22.6215 124.083 22.8191 123.885 23.0163C123.688 23.2138 123.587 23.5291 123.587 23.963C123.587 24.3578 123.706 24.8703 123.945 25.5011L128.931 38.1629L133.384 26.3298C133.582 25.7772 133.711 25.4129 133.77 25.2352Z" fill="#779797"/>
<path d="M145.16 35.3238C144.704 35.7971 144.477 36.4081 144.477 37.1576C144.477 37.7104 144.635 38.2329 144.953 38.7254C145.269 39.219 145.685 39.6625 146.2 40.057C146.713 40.4518 147.307 40.7574 147.979 40.9745C148.653 41.1913 149.345 41.2994 150.057 41.2994C151.007 41.2994 152.047 41.0922 153.174 40.6785C154.302 40.2642 155.321 39.7222 156.232 39.0513C156.548 38.8537 156.776 38.7155 156.915 38.6369C157.053 38.5584 157.221 38.5192 157.419 38.5192C157.735 38.5192 158.013 38.6273 158.249 38.8441C158.487 39.0612 158.605 39.3274 158.605 39.6433C158.605 40.117 158.349 40.6589 157.834 41.2699C157.32 41.8818 156.607 42.5222 155.697 43.1931C154.668 43.9031 153.51 44.465 152.223 44.8793C150.938 45.2937 149.642 45.5009 148.335 45.5009C146.673 45.5009 145.139 45.1747 143.735 44.5237C142.329 43.8733 141.103 42.9757 140.054 41.8317C139.005 40.6884 138.185 39.337 137.59 37.7791C136.997 36.2214 136.7 34.5349 136.7 32.7204C136.7 30.7875 137.017 28.9833 137.65 27.3063C138.283 25.63 139.164 24.1801 140.293 22.9576C141.42 21.7348 142.755 20.7782 144.299 20.0877C145.842 19.3976 147.505 19.0525 149.285 19.0525C150.512 19.0525 151.66 19.25 152.727 19.6439C153.797 20.0386 154.727 20.571 155.518 21.2413C156.31 21.9122 156.944 22.6911 157.418 23.5782C157.894 24.4659 158.131 25.4225 158.131 26.4481C158.131 27.4734 157.884 28.3021 157.388 28.9335C156.893 29.5644 156.072 30.1362 154.926 30.6496L147.741 33.7854C146.476 34.338 145.615 34.8501 145.16 35.3238ZM151.749 28.1347C152.086 27.7604 152.254 27.237 152.254 26.5668C152.254 25.4229 151.818 24.4168 150.948 23.5493C150.078 22.6815 149.049 22.2473 147.86 22.2473C146.278 22.2473 144.971 22.9278 143.943 24.2892C142.914 25.6496 142.399 27.3952 142.399 29.5252C142.399 30.2349 142.429 30.8959 142.488 31.5072C142.548 32.1181 142.676 32.7595 142.873 33.4304C143.15 32.9176 143.448 32.5328 143.765 32.2762C144.081 32.02 144.655 31.7143 145.486 31.359L149.879 29.3476C150.789 28.9137 151.413 28.5096 151.749 28.1347Z" fill="#779797"/>
<path d="M157.701 44.5236C157.424 44.268 157.287 43.9226 157.287 43.4884C157.287 42.9756 157.415 42.6209 157.672 42.4234C157.93 42.2261 158.454 42.0485 159.246 41.891C160.077 41.7329 160.631 41.3776 160.908 40.8256C161.184 40.2734 161.323 39.2481 161.323 37.7495V9.76304C161.323 8.50109 160.888 7.86963 160.017 7.86963C159.938 7.86963 159.741 7.90908 159.422 7.98765C159.028 8.06686 158.79 8.10631 158.711 8.10631C158.394 8.10631 158.118 7.97803 157.88 7.72115C157.643 7.46587 157.523 7.17917 157.523 6.8636C157.523 6.03556 157.999 5.38454 158.948 4.91022L167.675 0.237317C168.071 0.0792127 168.367 0 168.565 0C168.883 0 169.159 0.118659 169.396 0.355335C169.634 0.59169 169.753 0.907258 169.753 1.30204C169.753 1.73659 169.665 2.08166 169.485 2.33758C169.307 2.59381 168.862 3.0181 168.151 3.60947C167.359 4.28005 166.962 5.46343 166.962 7.15993V37.7501C166.962 38.5782 166.993 39.2488 167.052 39.7615C167.111 40.274 167.239 40.6784 167.437 40.9744C167.636 41.2698 167.913 41.4869 168.269 41.6251C168.625 41.7627 169.1 41.8916 169.693 42.0093C170.565 42.2069 171 42.6998 171 43.4887C171 43.9229 170.861 44.2683 170.584 44.5239C170.307 44.7805 169.931 44.9091 169.456 44.9091H158.83C158.355 44.9088 157.979 44.7802 157.701 44.5236Z" fill="#779797"/>
<path d="M95.7012 20.0902C93.6242 19.7704 91.5862 20.4503 90.1913 21.2344C89.8396 21.4317 88.9027 22.1689 88.5452 21.997C88.3753 21.9149 88.4792 21.6183 88.5043 21.2363L88.5648 20.7088L88.6237 19.8217C88.6237 19.4276 88.4956 19.0918 88.2385 18.816C87.9808 18.5399 87.6349 18.4014 87.1999 18.4014C86.9222 18.4014 86.6452 18.4604 86.3688 18.579C85.7352 18.816 85.2008 19.0133 84.7654 19.1704C84.3307 19.3285 83.9054 19.4475 83.4893 19.5261C83.0736 19.604 82.6392 19.6531 82.183 19.6742C81.7283 19.6931 81.2041 19.7028 80.6099 19.7028C79.2649 19.7028 78.5914 20.1966 78.5914 21.1825C78.5914 22.0105 79.0667 22.4839 80.0165 22.6028C81.0458 22.7209 81.7283 22.9575 82.0642 23.3119C82.4011 23.6672 82.5694 24.3183 82.5694 25.2653V37.7498C82.5694 39.2484 82.431 40.274 82.154 40.8259C81.877 41.3782 81.3226 41.7332 80.4918 41.8913C79.7002 42.0488 79.1754 42.2264 78.918 42.4237C78.6613 42.6212 78.5322 42.9759 78.5322 43.4887C78.5322 43.9229 78.6706 44.2683 78.9483 44.5239C79.2253 44.7805 79.6008 44.9091 80.0754 44.9091H90.821C91.8098 44.9091 92.305 44.4354 92.305 43.489C92.305 42.7001 91.8693 42.2072 90.9999 42.0096C90.4053 41.8916 89.9307 41.763 89.5739 41.6254C89.2177 41.4872 88.9403 41.2701 88.7421 40.9747C88.5439 40.6787 88.4158 40.2743 88.3566 39.7618C88.2974 39.2487 88.2672 38.5785 88.2672 37.7504V28.6265L88.2624 28.0714C88.2624 26.854 89.3351 25.4587 90.2965 24.9914C92.7481 23.7994 94.7816 24.3632 95.9676 25.7621C97.3451 27.3864 97.5745 28.2103 98.0346 31.0738C98.4758 33.8235 97.478 39.8215 97.478 39.8215C96.921 42.8011 94.5409 47.2361 94.5409 47.2361C94.3691 47.5603 94.1937 47.8807 94.0171 48.1966C93.2297 49.6035 92.0244 50.767 91.2438 52.1245C90.9108 52.7008 88.948 54.4188 90.4204 55.023C91.4356 55.4395 92.4948 54.1744 93.0032 53.7642C96.468 50.9655 99.229 47.2457 101.478 43.2392C103.175 40.216 103.829 35.9555 104.139 32.1019V31.3473C104.047 25.5988 101.663 21.0067 95.7012 20.0902Z" fill="#779797"/>
<path d="M60.3409 57.4199C60.3238 57.4039 60.3068 57.3881 60.2878 57.374C59.9142 57.0982 59.5847 56.8045 59.3167 56.4697C59.049 56.1342 58.8437 55.7571 58.7192 55.3148C57.9843 52.7095 59.2871 50.9963 61.3506 49.5964C63.4137 48.1969 65.9769 47.2438 68.2843 45.8911L68.5449 45.7577C69.6353 44.9534 70.4893 44.4223 71.1537 43.7241C71.8185 43.026 72.2941 42.1614 72.6271 40.6903C72.6454 40.6101 72.5689 39.9325 72.5689 39.9325C72.5219 36.8079 66.6169 34.2125 66.6169 34.2125C63.8208 32.9307 61.4075 31.9644 60.7659 28.8302C60.6337 28.1834 60.5655 27.4605 60.6218 26.737C60.6781 26.0129 60.8589 25.2874 61.2254 24.6351C62.0453 23.1737 62.9156 22.0837 64.0357 21.3223C65.1554 20.561 66.5245 20.1287 68.3422 19.9828C69.348 19.902 70.2728 20.104 71.1534 20.3968C72.0338 20.6899 72.8697 21.0735 73.6986 21.3557C74.3469 21.5763 74.8984 20.9785 75.5149 20.5623C76.1314 20.1463 76.8116 19.9122 77.7164 20.8599C77.9288 21.0824 77.9635 21.3419 77.913 21.6113C77.8625 21.881 77.7277 22.1603 77.6016 22.4236C77.5063 22.6218 76.967 23.5855 76.8554 23.7773C76.402 24.5572 75.7839 25.7371 75.0606 27.0612C74.3768 28.3129 73.567 29.2359 72.5891 28.3155C72.4031 28.1407 72.2873 27.7613 72.24 27.5445C72.1927 27.3281 72.1818 27.0372 72.1818 27.0372C72.1547 26.408 72.2027 26.2393 72.1335 25.5851C72.0643 24.9302 71.776 24.2474 70.7142 23.453C70.4436 23.2507 70.1514 23.1365 69.8619 23.0256C69.3589 22.8335 68.1848 22.7507 68.1848 22.7507C68.1102 22.7517 66.8875 22.853 66.1616 23.5323C65.585 24.071 65.1278 24.6759 65.0373 25.4407C65.0373 25.4407 64.8748 26.3887 65.4572 27.0654C65.862 27.5352 66.3698 28.0557 67.1558 28.4874C68.6556 29.3109 71.2934 30.4786 71.2934 30.4786C72.6313 31.0992 73.8035 31.6803 74.9998 32.4531C75.5049 32.7799 76.0529 33.3469 76.5085 33.9983C76.9645 34.6499 77.3284 35.3879 77.4674 36.0568C77.4796 36.1171 77.6678 37.0292 77.6395 37.0292C78.126 41.2849 76.2141 43.795 73.5921 45.7019C70.97 47.6097 67.91 48.6818 65.5541 50.5258L65.2809 50.7577C64.4115 51.4392 64.4974 52.4404 64.4974 52.4404C64.508 52.7265 64.5643 52.9721 64.6367 53.2726C64.7088 53.5737 64.797 53.9307 64.8703 54.2424L64.9752 54.7071C65.0611 55.1949 65.0647 55.6538 64.8752 56.1637C64.6857 56.6733 64.4115 57.2393 63.6164 57.6793C63.0295 58.0042 62.4748 58.1139 61.9092 58.0113C61.3438 57.9083 60.8097 57.6595 60.393 57.4686L60.3409 57.4199Z" fill="#779797"/>
</g>
<path d="M112.913 72.0483V61.6603H115.573V72.0483H112.913ZM117.302 72.0483V64.4603H119.962V72.0483H117.302ZM118.632 63.6203C118.146 63.6203 117.754 63.485 117.456 63.2143C117.157 62.9437 117.008 62.6077 117.008 62.2063C117.008 61.805 117.157 61.469 117.456 61.1983C117.754 60.9277 118.146 60.7923 118.632 60.7923C119.117 60.7923 119.509 60.923 119.808 61.1843C120.106 61.4363 120.256 61.763 120.256 62.1643C120.256 62.5843 120.106 62.9343 119.808 63.2143C119.518 63.485 119.126 63.6203 118.632 63.6203ZM126.464 72.1743C125.783 72.1743 125.214 72.0343 124.756 71.7543C124.308 71.4743 123.972 71.045 123.748 70.4663C123.524 69.8877 123.412 69.1457 123.412 68.2403C123.412 67.3537 123.529 66.621 123.762 66.0423C124.005 65.4637 124.355 65.0343 124.812 64.7543C125.27 64.4743 125.82 64.3343 126.464 64.3343C127.155 64.3343 127.78 64.493 128.34 64.8103C128.91 65.1277 129.358 65.5803 129.684 66.1683C130.02 66.747 130.188 67.4377 130.188 68.2403C130.188 69.0523 130.02 69.7523 129.684 70.3403C129.358 70.919 128.91 71.3717 128.34 71.6983C127.78 72.0157 127.155 72.1743 126.464 72.1743ZM121.69 72.0483V61.6603H124.35V65.7343L124.21 68.2403L124.224 70.7463V72.0483H121.69ZM125.904 70.0603C126.203 70.0603 126.469 69.9903 126.702 69.8503C126.945 69.7103 127.136 69.505 127.276 69.2343C127.426 68.9543 127.5 68.623 127.5 68.2403C127.5 67.8577 127.426 67.5357 127.276 67.2743C127.136 67.0037 126.945 66.7983 126.702 66.6583C126.469 66.5183 126.203 66.4483 125.904 66.4483C125.606 66.4483 125.335 66.5183 125.092 66.6583C124.859 66.7983 124.668 67.0037 124.518 67.2743C124.378 67.5357 124.308 67.8577 124.308 68.2403C124.308 68.623 124.378 68.9543 124.518 69.2343C124.668 69.505 124.859 69.7103 125.092 69.8503C125.335 69.9903 125.606 70.0603 125.904 70.0603ZM131.425 72.0483V64.4603H133.959V66.6723L133.581 66.0423C133.805 65.473 134.169 65.0483 134.673 64.7683C135.177 64.479 135.788 64.3343 136.507 64.3343V66.7283C136.385 66.7097 136.278 66.7003 136.185 66.7003C136.101 66.691 136.007 66.6863 135.905 66.6863C135.363 66.6863 134.925 66.8357 134.589 67.1343C134.253 67.4237 134.085 67.8997 134.085 68.5623V72.0483H131.425ZM141.512 72.1743C140.616 72.1743 139.832 72.0063 139.16 71.6703C138.497 71.325 137.979 70.8583 137.606 70.2703C137.242 69.673 137.06 68.9963 137.06 68.2403C137.06 67.4843 137.237 66.8123 137.592 66.2243C137.956 65.627 138.455 65.165 139.09 64.8383C139.725 64.5023 140.439 64.3343 141.232 64.3343C141.979 64.3343 142.66 64.4883 143.276 64.7963C143.892 65.095 144.382 65.5383 144.746 66.1263C145.11 66.7143 145.292 67.4283 145.292 68.2683C145.292 68.3617 145.287 68.469 145.278 68.5903C145.269 68.7117 145.259 68.8237 145.25 68.9263H139.244V67.5263H143.836L142.828 67.9183C142.837 67.573 142.772 67.2743 142.632 67.0223C142.501 66.7703 142.315 66.5743 142.072 66.4343C141.839 66.2943 141.563 66.2243 141.246 66.2243C140.929 66.2243 140.649 66.2943 140.406 66.4343C140.173 66.5743 139.991 66.775 139.86 67.0363C139.729 67.2883 139.664 67.587 139.664 67.9323V68.3383C139.664 68.7117 139.739 69.0337 139.888 69.3043C140.047 69.575 140.271 69.785 140.56 69.9343C140.849 70.0743 141.195 70.1443 141.596 70.1443C141.969 70.1443 142.287 70.093 142.548 69.9903C142.819 69.8783 143.085 69.7103 143.346 69.4863L144.746 70.9423C144.382 71.3437 143.934 71.6517 143.402 71.8663C142.87 72.0717 142.24 72.1743 141.512 72.1743ZM146.519 72.0483V64.4603H149.053V66.6723L148.675 66.0423C148.899 65.473 149.263 65.0483 149.767 64.7683C150.271 64.479 150.882 64.3343 151.601 64.3343V66.7283C151.479 66.7097 151.372 66.7003 151.279 66.7003C151.195 66.691 151.101 66.6863 150.999 66.6863C150.457 66.6863 150.019 66.8357 149.683 67.1343C149.347 67.4237 149.179 67.8997 149.179 68.5623V72.0483H146.519ZM152.698 72.0483V64.4603H155.358V72.0483H152.698ZM152.656 63.5503L154.532 61.4223H157.192L154.56 63.5503H152.656ZM161.721 72.0483V70.6343L161.539 70.2843V67.6803C161.539 67.2603 161.408 66.9383 161.147 66.7143C160.895 66.481 160.489 66.3643 159.929 66.3643C159.565 66.3643 159.196 66.425 158.823 66.5463C158.45 66.6583 158.132 66.817 157.871 67.0223L156.975 65.2163C157.404 64.9363 157.918 64.7217 158.515 64.5723C159.122 64.4137 159.724 64.3343 160.321 64.3343C161.553 64.3343 162.505 64.619 163.177 65.1883C163.858 65.7483 164.199 66.6303 164.199 67.8343V72.0483H161.721ZM159.481 72.1743C158.874 72.1743 158.361 72.0717 157.941 71.8663C157.521 71.661 157.199 71.381 156.975 71.0263C156.76 70.6717 156.653 70.275 156.653 69.8363C156.653 69.3697 156.77 68.9683 157.003 68.6323C157.246 68.287 157.614 68.0257 158.109 67.8483C158.604 67.6617 159.243 67.5683 160.027 67.5683H161.819V68.9543H160.391C159.962 68.9543 159.658 69.0243 159.481 69.1643C159.313 69.3043 159.229 69.491 159.229 69.7243C159.229 69.9577 159.318 70.1443 159.495 70.2843C159.672 70.4243 159.915 70.4943 160.223 70.4943C160.512 70.4943 160.774 70.4243 161.007 70.2843C161.25 70.135 161.427 69.911 161.539 69.6123L161.903 70.5923C161.763 71.115 161.488 71.5117 161.077 71.7823C160.676 72.0437 160.144 72.1743 159.481 72.1743Z" fill="#646464"/>
<defs>
<filter id="filter0_d_61_302" x="0" y="0" width="175" height="66.0483" filterUnits="userSpaceOnUse" color-interpolation-filters="sRGB">
<feFlood flood-opacity="0" result="BackgroundImageFix"/>
<feColorMatrix in="SourceAlpha" type="matrix" values="0 0 0 0 0 0 0 0 0 0 0 0 0 0 0 0 0 0 127 0" result="hardAlpha"/>
<feOffset dy="4"/>
<feGaussianBlur stdDeviation="2"/>
<feComposite in2="hardAlpha" operator="out"/>
<feColorMatrix type="matrix" values="0 0 0 0 0 0 0 0 0 0 0 0 0 0 0 0 0 0 0.25 0"/>
<feBlend mode="normal" in2="BackgroundImageFix" result="effect1_dropShadow_61_302"/>
<feBlend mode="normal" in="SourceGraphic" in2="effect1_dropShadow_61_302" result="shape"/>
</filter>
</defs>
</svg>
