<svg width="109" height="109" viewBox="0 0 109 109" fill="none" xmlns="http://www.w3.org/2000/svg">
<g filter="url(#filter0_d_17_143)">
<path d="M87.52 23.5449C87.52 20.1882 84.7995 17.4778 81.4553 17.4778C78.111 17.4778 75.3881 20.1882 75.3881 23.5449C75.3881 26.8892 78.111 29.5996 81.4553 29.5996C84.7995 29.5996 87.52 26.8892 87.52 23.5449Z" fill="url(#paint0_linear_17_143)"/>
<path d="M95.6009 70.9039C95.3763 75.828 94.5527 78.5034 93.869 80.2803C92.9505 82.6363 91.8549 84.3209 90.078 86.0879C88.3209 87.8549 86.6363 88.948 84.2803 89.8564C82.5034 90.5503 79.8179 91.3763 74.8939 91.611C69.5705 91.8456 67.9932 91.8956 54.4937 91.8956C41.0068 91.8956 39.4169 91.8456 34.0935 91.611C29.1696 91.3763 26.4966 90.5503 24.7195 89.8564C22.3511 88.948 20.6791 87.8549 18.9121 86.0879C17.1326 84.3209 16.037 82.6363 15.131 80.2803C14.4471 78.5034 13.6111 75.828 13.3989 70.9039C13.1394 65.5805 13.0919 63.9782 13.0919 50.5063C13.0919 37.0068 13.1394 35.4169 13.3989 30.0935C13.6111 25.1696 14.4471 22.4966 15.131 20.7046C16.037 18.3512 17.1326 16.6764 18.9121 14.9095C20.6791 13.1451 22.3511 12.0494 24.7195 11.1311C26.4966 10.4347 29.1696 9.62106 34.0935 9.38653C39.4169 9.1518 41.0068 9.0919 54.4937 9.0919C67.9932 9.0919 69.5705 9.1518 74.8939 9.38653C79.8179 9.62106 82.5034 10.4347 84.2803 11.1311C86.6363 12.0494 88.3209 13.1451 90.078 14.9095C91.8549 16.6764 92.9505 18.3512 93.869 20.7046C94.5527 22.4966 95.3763 25.1696 95.6009 30.0935C95.848 35.4169 95.9079 37.0068 95.9079 50.5063C95.9079 63.9782 95.848 65.5805 95.6009 70.9039ZM104.693 29.6793C104.446 24.2984 103.597 20.6222 102.337 17.4203C101.054 14.0984 99.3346 11.2832 96.5194 8.46804C93.7168 5.66539 90.9016 3.94576 87.5797 2.64805C84.3653 1.40012 80.7014 0.541519 75.3181 0.306976C69.9348 0.0473633 68.2153 0 54.4937 0C40.7847 0 39.0527 0.0473633 33.6694 0.306976C28.2984 0.541519 24.6372 1.40012 21.4078 2.64805C18.0984 3.94576 15.2832 5.66539 12.4806 8.46804C9.66538 11.2832 7.94576 14.0984 6.65047 17.4203C5.40254 20.6222 4.55405 24.2984 4.29443 29.6793C4.0599 35.0626 4 36.7847 4 50.5063C4 64.2154 4.0599 65.9348 4.29443 71.3181C4.55405 76.689 5.40254 80.3626 6.65047 83.5797C7.94576 86.889 9.66538 89.7168 12.4806 92.5194C15.2832 95.3221 18.0984 97.0542 21.4078 98.3495C24.6372 99.5973 28.2984 100.446 33.6694 100.693C39.0527 100.94 40.7847 101 54.4937 101C68.2153 101 69.9348 100.94 75.3181 100.693C80.7014 100.446 84.3653 99.5973 87.5797 98.3495C90.9016 97.0542 93.7168 95.3221 96.5194 92.5194C99.3346 89.7168 101.054 86.889 102.337 83.5797C103.597 80.3626 104.446 76.689 104.693 71.3181C104.94 65.9348 105 64.2154 105 50.5063C105 36.7847 104.94 35.0626 104.693 29.6793Z" fill="url(#paint1_linear_17_143)"/>
<path d="M54.4937 67.325C45.2021 67.325 37.6625 59.7977 37.6625 50.5061C37.6625 41.1995 45.2021 33.6625 54.4937 33.6625C63.788 33.6625 71.3375 41.1995 71.3375 50.5061C71.3375 59.7977 63.788 67.325 54.4937 67.325ZM54.4937 24.5581C40.1707 24.5581 28.5706 36.1831 28.5706 50.5061C28.5706 64.8168 40.1707 76.4294 54.4937 76.4294C68.8167 76.4294 80.4294 64.8168 80.4294 50.5061C80.4294 36.1831 68.8167 24.5581 54.4937 24.5581Z" fill="url(#paint2_linear_17_143)"/>
</g>
<defs>
<filter id="filter0_d_17_143" x="0" y="0" width="109" height="109" filterUnits="userSpaceOnUse" color-interpolation-filters="sRGB">
<feFlood flood-opacity="0" result="BackgroundImageFix"/>
<feColorMatrix in="SourceAlpha" type="matrix" values="0 0 0 0 0 0 0 0 0 0 0 0 0 0 0 0 0 0 127 0" result="hardAlpha"/>
<feOffset dy="4"/>
<feGaussianBlur stdDeviation="2"/>
<feComposite in2="hardAlpha" operator="out"/>
<feColorMatrix type="matrix" values="0 0 0 0 0 0 0 0 0 0 0 0 0 0 0 0 0 0 0.25 0"/>
<feBlend mode="normal" in2="BackgroundImageFix" result="effect1_dropShadow_17_143"/>
<feBlend mode="normal" in="SourceGraphic" in2="effect1_dropShadow_17_143" result="shape"/>
</filter>
<linearGradient id="paint0_linear_17_143" x1="4.91112" y1="99.9558" x2="96.5879" y2="8.27946" gradientUnits="userSpaceOnUse">
<stop stop-color="#FFD521"/>
<stop offset="0.05" stop-color="#FFD521"/>
<stop offset="0.501119" stop-color="#F50000"/>
<stop offset="0.95" stop-color="#B900B4"/>
<stop offset="0.950079" stop-color="#B900B4"/>
<stop offset="1" stop-color="#B900B4"/>
</linearGradient>
<linearGradient id="paint1_linear_17_143" x1="4.91101" y1="100.082" x2="96.663" y2="8.32952" gradientUnits="userSpaceOnUse">
<stop stop-color="#FFD521"/>
<stop offset="0.05" stop-color="#FFD521"/>
<stop offset="0.501119" stop-color="#F50000"/>
<stop offset="0.95" stop-color="#B900B4"/>
<stop offset="0.950079" stop-color="#B900B4"/>
<stop offset="1" stop-color="#B900B4"/>
</linearGradient>
<linearGradient id="paint2_linear_17_143" x1="4.93476" y1="100.084" x2="96.6646" y2="8.35402" gradientUnits="userSpaceOnUse">
<stop stop-color="#FFD521"/>
<stop offset="0.05" stop-color="#FFD521"/>
<stop offset="0.501119" stop-color="#F50000"/>
<stop offset="0.95" stop-color="#B900B4"/>
<stop offset="0.950079" stop-color="#B900B4"/>
<stop offset="1" stop-color="#B900B4"/>
</linearGradient>
</defs>
</svg>
